HIERARCHY
ROOT Hips
{
	OFFSET 62.890800 8.863803 43.568401
	CHANNELS 6 Xposition Yposition Zposition Zrotation Xrotation Yrotation
	JOINT Chest
	{
		OFFSET -0.160400 1.630001 7.806301
		CHANNELS 6 Xposition Yposition Zposition Zrotation Xrotation Yrotation
		JOINT Chest2
		{
			OFFSET 0.000000 0.000000 3.197998
			CHANNELS 6 Xposition Yposition Zposition Zrotation Xrotation Yrotation
			JOINT Neck
			{
				OFFSET 0.000000 0.000001 7.440701
				CHANNELS 6 Xposition Yposition Zposition Zrotation Xrotation Yrotation
				JOINT Head
				{
					OFFSET 0.000000 0.000000 2.173901
					CHANNELS 6 Xposition Yposition Zposition Zrotation Xrotation Yrotation
					End Site
					{
						OFFSET 0.000000 0.000001 10.420303
					}
				}
			}
			JOINT LeftCollar
			{
				OFFSET 2.426399 -1.880099 4.759399
				CHANNELS 6 Xposition Yposition Zposition Zrotation Xrotation Yrotation
				JOINT LeftShoulder
				{
					OFFSET 4.420197 0.000000 0.000000
					CHANNELS 6 Xposition Yposition Zposition Zrotation Xrotation Yrotation
					JOINT LeftElbow
					{
						OFFSET 0.000000 -0.000001 -10.347099
						CHANNELS 6 Xposition Yposition Zposition Zrotation Xrotation Yrotation
						JOINT LeftWrist
						{
							OFFSET 0.000000 -0.000001 -12.496300
							CHANNELS 6 Xposition Yposition Zposition Zrotation Xrotation Yrotation
							End Site
							{
								OFFSET 0.000000 0.000000 -2.173901
							}
						}
					}
				}
			}
			JOINT RightCollar
			{
				OFFSET -2.781502 -1.903799 5.072601
				CHANNELS 6 Xposition Yposition Zposition Zrotation Xrotation Yrotation
				JOINT RightShoulder
				{
					OFFSET -4.012100 0.000000 0.000000
					CHANNELS 6 Xposition Yposition Zposition Zrotation Xrotation Yrotation
					JOINT RightElbow
					{
						OFFSET 0.000000 -0.000001 -10.346600
						CHANNELS 6 Xposition Yposition Zposition Zrotation Xrotation Yrotation
						JOINT RightWrist
						{
							OFFSET 0.000000 -0.000001 -12.562599
							CHANNELS 6 Xposition Yposition Zposition Zrotation Xrotation Yrotation
							End Site
							{
								OFFSET 0.000000 0.000000 -2.173901
							}
						}
					}
				}
			}
		}
	}
	JOINT LeftHip
	{
		OFFSET 2.047997 -0.047200 -2.693199
		CHANNELS 6 Xposition Yposition Zposition Zrotation Xrotation Yrotation
		JOINT LeftKnee
		{
			OFFSET 0.000000 -0.000001 -18.824400
			CHANNELS 6 Xposition Yposition Zposition Zrotation Xrotation Yrotation
			JOINT LeftAnkle
			{
				OFFSET 0.000000 -0.000002 -19.078199
				CHANNELS 6 Xposition Yposition Zposition Zrotation Xrotation Yrotation
				End Site
				{
					OFFSET 0.000000 -9.342100 0.000001
				}
			}
		}
	}
	JOINT RightHip
	{
		OFFSET -2.129898 -0.022300 -2.538300
		CHANNELS 6 Xposition Yposition Zposition Zrotation Xrotation Yrotation
		JOINT RightKnee
		{
			OFFSET 0.000000 -0.000001 -18.644600
			CHANNELS 6 Xposition Yposition Zposition Zrotation Xrotation Yrotation
			JOINT RightAnkle
			{
				OFFSET 0.000000 -0.000002 -18.801399
				CHANNELS 6 Xposition Yposition Zposition Zrotation Xrotation Yrotation
				End Site
				{
					OFFSET 0.000000 -8.914600 0.000001
				}
			}
		}
	}
}
MOTION
Frames: 5
Frame Time: 0.041667
85.590309 90.621002 28.659817 3236.452900 14.422165 350.458454 -0.160403 1.630001 7.806312 2.262511 12.685310 1.664176 0.000007 0.000002 3.198007 -7.411151 -9.224240 -0.843233 -0.000000 -0.000010 7.440697 -8.497186 -9.391139 10.155277 -0.000007 -0.000000 2.173900 -2.052881 -9.019056 1.070776 2.426400 -1.880100 4.759399 -171.853734 175.923038 -181.407639 4.420196 0.000005 -0.000003 -66.238833 -23.502812 -96.559327 0.000001 0.000004 -10.347096 973.891976 -116.290473 -126.359237 -0.000008 -0.000008 -12.496301 -6.571004 -15.548190 -5.904550 -2.781494 -1.903807 5.072597 -170.638261 -199.780465 179.835097 -4.012089 0.000013 -0.000003 28.628779 -17.992834 459.625067 -0.000004 0.000002 -10.346582 -226.174597 -123.114255 -232.410492 -0.000003 -0.000000 -12.562596 878.156875 558.739909 -891.569126 2.047997 -0.047201 -2.693194 841.991625 -25.873160 81.702655 -0.000008 0.000009 -18.824404 -527.917779 0.794920 101.446013 -0.000003 0.000005 -19.078199 -311.558696 -22.173121 53.824653 -2.129901 -0.022302 -2.538293 -859.593951 -18.643703 -90.733695 -0.000006 -0.000002 -18.644592 363.052640 -179.264585 67.576949 0.000008 -0.000015 -18.801407 113.963393 201.973967 104.441092
85.752899 90.607895 29.104221 3236.255316 14.486814 350.889385 -0.160404 1.630013 7.806292 2.401184 13.280029 1.519758 -0.000004 0.000000 3.198003 -7.775274 -9.322577 -0.900442 -0.000015 -0.000007 7.440694 -8.216998 -9.500591 9.509806 -0.000012 -0.000011 2.173907 -2.036709 -8.779432 1.155428 2.426393 -1.880102 4.759395 -172.211977 176.036460 -181.193594 4.420200 0.000005 -0.000004 -66.636842 -22.870371 -93.794651 0.000005 0.000006 -10.347094 973.693190 -116.049313 -125.059507 -0.000006 0.000000 -12.496305 -7.952002 -15.559999 -6.252890 -2.781514 -1.903814 5.072593 -170.254008 -199.667644 179.063436 -4.012094 0.000011 -0.000002 29.745696 -17.415364 459.736099 0.000004 0.000005 -10.346598 -223.710320 -123.628295 -230.026455 -0.000001 -0.000003 -12.562599 878.739135 558.782748 -891.255648 2.047997 -0.047195 -2.693207 841.357783 -26.373186 80.789294 -0.000006 0.000005 -18.824396 -527.310056 1.758630 100.562829 0.000008 -0.000018 -19.078197 -312.140574 -22.156335 53.191826 -2.129899 -0.022296 -2.538305 -858.863011 -19.330704 -89.362247 0.000002 0.000009 -18.644594 362.419236 -180.438640 68.898399 -0.000004 -0.000008 -18.801403 114.760866 202.122264 105.236283
85.908905 90.594391 29.541822 3236.132919 14.569241 351.303403 -0.160400 1.630013 7.806308 2.458844 13.869491 1.497088 -0.000011 -0.000001 3.198004 -8.269240 -9.427362 -0.988042 -0.000001 -0.000011 7.440700 -7.822388 -9.558393 8.622311 -0.000007 -0.000016 2.173904 -1.944121 -8.351797 1.364320 2.426410 -1.880112 4.759403 -172.409192 176.052142 -181.014233 4.420202 0.000009 0.000000 -67.393026 -21.484568 -91.057719 -0.000003 -0.000002 -10.347094 973.676142 -116.068792 -124.468409 -0.000002 0.000002 -12.496305 -9.219309 -15.765448 -6.553495 -2.781502 -1.903817 5.072599 -169.527768 -199.373632 177.068338 -4.012084 0.000004 -0.000001 30.995668 -15.882806 460.817564 -0.000005 -0.000003 -10.346605 -221.489743 -124.280114 -227.653320 -0.000005 0.000012 -12.562599 879.361611 558.861323 -890.937416 2.047994 -0.047190 -2.693196 840.638865 -26.876323 79.885052 -0.000006 0.000009 -18.824406 -526.695230 2.827630 99.629367 -0.000010 -0.000015 -19.078199 -312.781328 -22.005046 52.496581 -2.129894 -0.022288 -2.538292 -858.190812 -19.949866 -88.007602 0.000001 0.000004 -18.644600 361.872602 -182.123060 70.141508 0.000005 -0.000005 -18.801401 116.416422 202.039495 107.650557
86.059509 90.579895 29.972717 3236.029537 14.660873 351.586884 -0.160402 1.629999 7.806310 2.461243 14.503120 1.645075 -0.000008 0.000009 3.198007 -8.806942 -9.580660 -1.087064 -0.000016 -0.000004 7.440701 -7.490516 -9.632167 7.710216 -0.000014 -0.000003 2.173905 -1.802338 -7.746158 1.531948 2.426403 -1.880098 4.759391 -172.457728 176.089353 -180.345899 4.420202 -0.000005 0.000009 -68.456042 -19.059530 -88.392278 0.000004 -0.000003 -10.347101 973.708599 -115.791951 -124.429927 -0.000012 -0.000003 -12.496292 -9.846526 -15.869332 -6.838504 -2.781503 -1.903799 5.072597 -169.787069 -199.101025 175.793920 -4.012084 -0.000003 -0.000008 33.124399 -14.504468 461.578829 0.000002 -0.000004 -10.346592 -219.192436 -124.912275 -225.314048 -0.000000 0.000003 -12.562594 879.955346 558.915035 -890.610004 2.047987 -0.047203 -2.693192 839.834487 -27.301344 78.912843 -0.000005 -0.000000 -18.824398 -526.055815 3.995333 98.652138 0.000007 -0.000011 -19.078192 -313.499344 -21.863214 51.941444 -2.129896 -0.022303 -2.538294 -857.560795 -20.629818 -86.727331 -0.000005 0.000010 -18.644596 361.360830 -184.439601 71.289854 -0.000004 -0.000010 -18.801403 118.540009 201.997312 110.708590
86.203011 90.562286 30.395824 3235.968776 14.807505 351.821924 -0.160399 1.630004 7.806299 2.415913 15.075144 1.908493 0.000001 0.000009 3.197998 -9.393273 -9.708983 -1.193762 -0.000001 0.000012 7.440701 -7.200921 -9.693343 6.710286 -0.000020 0.000001 2.173911 -1.569349 -6.849045 1.685640 2.426405 -1.880085 4.759399 -172.753707 176.177995 -179.718437 4.420208 -0.000008 0.000004 -69.689335 -16.581618 -85.619666 -0.000002 0.000000 -10.347099 972.511622 -115.650238 -125.945656 0.000002 0.000002 -12.496295 -10.232712 -16.222941 -6.833882 -2.781503 -1.903785 5.072608 -168.745383 -198.953029 174.691814 -4.012100 -0.000009 -0.000006 33.948018 -13.645325 461.937769 0.000003 0.000002 -10.346603 -216.811938 -125.410770 -222.941309 -0.000002 0.000002 -12.562602 880.449524 559.296925 -890.928345 2.047984 -0.047190 -2.693200 839.001204 -27.625282 77.979812 -0.000001 0.000005 -18.824413 -525.465796 5.253515 97.664335 0.000006 -0.000009 -19.078197 -314.333666 -21.715277 51.265948 -2.129896 -0.022288 -2.538300 -857.009517 -21.246270 -85.489148 -0.000000 -0.000008 -18.644590 360.895721 -187.724976 72.343007 -0.000004 -0.000002 -18.801399 121.852228 201.513680 115.048266
